<svg id="format_bold-24px" xmlns="http://www.w3.org/2000/svg" width="24" height="24" viewBox="0 0 24 24">
  <g id="Group_11036" data-name="Group 11036">
    <rect id="Rectangle_11548" data-name="Rectangle 11548" width="24" height="24" fill="none"/>
  </g>
  <g id="Group_11038" data-name="Group 11038">
    <g id="Group_11037" data-name="Group 11037">
      <path id="Path_19121" data-name="Path 19121" d="M7,6A2.006,2.006,0,0,1,9,4h3.48c1.95,0,4.28,1.28,4.28,3.66a3.24,3.24,0,0,1-1.88,3.01v.16a3.41,3.41,0,0,1,2.39,3.28c0,3.01-2.95,3.89-4.6,3.89H9a2.006,2.006,0,0,1-2-2Zm5.28,3.71a1.712,1.712,0,0,0,1.9-1.68,1.675,1.675,0,0,0-1.82-1.66H9.64V9.71Zm.29,5.88a1.78,1.78,0,0,0,2.03-1.8c0-.23-.05-1.82-2.11-1.82H9.64v3.62Z" fill="#bdc3c9"/>
    </g>
  </g>
</svg>
