<svg id="format_list_numbered_rtl-24px" xmlns="http://www.w3.org/2000/svg" width="24" height="24" viewBox="0 0 24 24">
  <g id="Group_11027" data-name="Group 11027">
    <rect id="Rectangle_11545" data-name="Rectangle 11545" width="24" height="24" fill="none"/>
  </g>
  <g id="Group_11031" data-name="Group 11031">
    <g id="Group_11030" data-name="Group 11030">
      <g id="Group_11029" data-name="Group 11029">
        <g id="Group_11028" data-name="Group 11028">
          <path id="Path_19113" data-name="Path 19113" d="M20.5,16h-2a.5.5,0,0,0-.5.5h0a.5.5,0,0,0,.5.5H20v.5h-.5a.5.5,0,0,0-.5.5h0a.5.5,0,0,0,.5.5H20V19H18.5a.5.5,0,0,0-.5.5h0a.5.5,0,0,0,.5.5h2a.5.5,0,0,0,.5-.5v-3A.5.5,0,0,0,20.5,16Z" fill="#bdc3c9"/>
          <path id="Path_19114" data-name="Path 19114" d="M18.5,5H19V7.5a.5.5,0,0,0,.5.5h0a.5.5,0,0,0,.5-.5v-3a.5.5,0,0,0-.5-.5h-1a.5.5,0,0,0-.5.5h0A.5.5,0,0,0,18.5,5Z" fill="#bdc3c9"/>
          <path id="Path_19115" data-name="Path 19115" d="M21,10.72V10.5a.5.5,0,0,0-.5-.5h-2a.5.5,0,0,0-.5.5h0a.5.5,0,0,0,.5.5h1.3l-1.68,1.96a.49.49,0,0,0-.12.32v.22a.5.5,0,0,0,.5.5h2a.5.5,0,0,0,.5-.5h0a.5.5,0,0,0-.5-.5H19.2l1.68-1.96A.49.49,0,0,0,21,10.72Z" fill="#bdc3c9"/>
          <path id="Path_19116" data-name="Path 19116" d="M15,5H3A1,1,0,0,0,3,7H15a1,1,0,0,0,0-2Z" fill="#bdc3c9"/>
          <path id="Path_19117" data-name="Path 19117" d="M15,17H3a1,1,0,0,0,0,2H15a1,1,0,0,0,0-2Z" fill="#bdc3c9"/>
          <path id="Path_19118" data-name="Path 19118" d="M15,11H3a1,1,0,0,0,0,2H15a1,1,0,0,0,0-2Z" fill="#bdc3c9"/>
        </g>
      </g>
    </g>
  </g>
</svg>
