<svg id="format_italic-24px" xmlns="http://www.w3.org/2000/svg" width="24" height="24" viewBox="0 0 24 24">
  <g id="Group_11039" data-name="Group 11039">
    <rect id="Rectangle_11549" data-name="Rectangle 11549" width="24" height="24" fill="none"/>
  </g>
  <g id="Group_11041" data-name="Group 11041">
    <g id="Group_11040" data-name="Group 11040">
      <path id="Path_19122" data-name="Path 19122" d="M9,5.5H9A1.5,1.5,0,0,0,10.5,7h2l-4,10h-2A1.5,1.5,0,0,0,5,18.5H5A1.5,1.5,0,0,0,6.5,20h7A1.5,1.5,0,0,0,15,18.5h0A1.5,1.5,0,0,0,13.5,17h-2l4-10h2A1.5,1.5,0,0,0,19,5.5h0A1.5,1.5,0,0,0,17.5,4h-7A1.5,1.5,0,0,0,9,5.5Z" fill="#bdc3c9"/>
    </g>
  </g>
</svg>
