<svg id="format_size-24px" xmlns="http://www.w3.org/2000/svg" width="24" height="24" viewBox="0 0 24 24">
  <g id="Group_11052" data-name="Group 11052">
    <rect id="Rectangle_11579" data-name="Rectangle 11579" width="24" height="24" fill="none"/>
  </g>
  <g id="Group_11054" data-name="Group 11054">
    <g id="Group_11053" data-name="Group 11053">
      <path id="Path_19126" data-name="Path 19126" d="M9,5.5H9A1.5,1.5,0,0,0,10.5,7H14V18.5A1.5,1.5,0,0,0,15.5,20h0A1.5,1.5,0,0,0,17,18.5V7h3.5A1.5,1.5,0,0,0,22,5.5h0A1.5,1.5,0,0,0,20.5,4h-10A1.5,1.5,0,0,0,9,5.5ZM3.5,12H5v6.5A1.5,1.5,0,0,0,6.5,20h0A1.5,1.5,0,0,0,8,18.5V12H9.5A1.5,1.5,0,0,0,11,10.5h0A1.5,1.5,0,0,0,9.5,9h-6A1.5,1.5,0,0,0,2,10.5H2A1.5,1.5,0,0,0,3.5,12Z" fill="#bdc3c9"/>
    </g>
  </g>
</svg>
