<svg id="format_underlined-24px" xmlns="http://www.w3.org/2000/svg" width="24" height="24" viewBox="0 0 24 24">
  <g id="Group_11042" data-name="Group 11042">
    <rect id="Rectangle_11550" data-name="Rectangle 11550" width="24" height="24" fill="none"/>
  </g>
  <g id="Group_11045" data-name="Group 11045">
    <g id="Group_11044" data-name="Group 11044">
      <g id="Group_11043" data-name="Group 11043">
        <path id="Path_19123" data-name="Path 19123" d="M12.79,16.95A6.138,6.138,0,0,0,18,10.79V4.25A1.25,1.25,0,0,0,16.75,3h0A1.25,1.25,0,0,0,15.5,4.25V10.9a3.555,3.555,0,0,1-2.77,3.52A3.494,3.494,0,0,1,8.5,11V4.25A1.25,1.25,0,0,0,7.25,3h0A1.25,1.25,0,0,0,6,4.25V11A6.006,6.006,0,0,0,12.79,16.95ZM5,20H5a1,1,0,0,0,1,1H18a1,1,0,0,0,1-1h0a1,1,0,0,0-1-1H6A1,1,0,0,0,5,20Z" fill="#bdc3c9"/>
      </g>
    </g>
  </g>
</svg>
