<svg id="attachment-24px_1_" data-name="attachment-24px (1)" xmlns="http://www.w3.org/2000/svg" width="24" height="24" viewBox="0 0 24 24">
  <g id="attachment-24px_1_2" data-name="attachment-24px (1)" transform="translate(0 24) rotate(-90)">
    <path id="Path_14517" data-name="Path 14517" d="M0,0H24V24H0Z" fill="none"/>
    <path id="Path_14518" data-name="Path 14518" d="M2,12.5A5.5,5.5,0,0,1,7.5,7H18a4,4,0,0,1,0,8H9.5a2.5,2.5,0,0,1,0-5H17v2H9.41c-.55,0-.55,1,0,1H18a2,2,0,0,0,0-4H7.5a3.5,3.5,0,0,0,0,7H17v2H7.5A5.5,5.5,0,0,1,2,12.5Z"/>
  </g>
</svg>
