<svg id="close-24px_1_" data-name="close-24px (1)" xmlns="http://www.w3.org/2000/svg" width="22" height="22"
     viewBox="0 0 22 22">
  <path id="Path_16620" data-name="Path 16620" d="M0,0H22V22H0Z" fill="none"/>
  <path id="Path_16621" data-name="Path 16621"
        d="M15.186,5.637a.755.755,0,0,0-1.069,0l-3.709,3.7L6.7,5.629A.756.756,0,0,0,5.629,6.7l3.709,3.709L5.629,14.116A.756.756,0,0,0,6.7,15.186l3.709-3.709,3.709,3.709a.756.756,0,0,0,1.069-1.069l-3.709-3.709L15.186,6.7A.76.76,0,0,0,15.186,5.637Z"
        transform="translate(1 1)"/>
</svg>
