<svg xmlns="http://www.w3.org/2000/svg" width="20.243" height="16.911" viewBox="0 0 20.243 16.911">
  <g id="up-arrow" transform="translate(20.093 20.771) rotate(180)">
    <path id="Path_14369" data-name="Path 14369" d="M12.024,15.635H9.947A1.04,1.04,0,0,1,8.908,14.6V9.818H6.623a.624.624,0,0,1-.451-1.054l4.362-4.57a.644.644,0,0,1,.9,0L15.8,8.765a.624.624,0,0,1-.451,1.054H13.063V14.6A1.04,1.04,0,0,1,12.024,15.635Z" transform="translate(-1.014)" stroke="#fff" stroke-width="0.3"/>
    <path id="Path_14370" data-name="Path 14370" d="M17.45,22.14H2.493A2.5,2.5,0,0,1,0,19.648V15.493A2.5,2.5,0,0,1,2.493,13H3.739a.831.831,0,1,1,0,1.662H2.493a.832.832,0,0,0-.831.831v4.155a.832.832,0,0,0,.831.831H17.45a.832.832,0,0,0,.831-.831V15.493a.832.832,0,0,0-.831-.831H16.2A.831.831,0,1,1,16.2,13H17.45a2.5,2.5,0,0,1,2.493,2.493v4.155A2.5,2.5,0,0,1,17.45,22.14Z" transform="translate(0 -1.52)" stroke="#fff" stroke-width="0.3"/>
  </g>
</svg>
