<svg xmlns="http://www.w3.org/2000/svg" width="18.377" height="14.902" viewBox="0 0 18.377 14.902">
  <g id="folder_1_" data-name="folder (1)" transform="translate(0 -48.403)">
    <g id="Group_10880" data-name="Group 10880" transform="translate(0 48.403)">
      <g id="Group_10879" data-name="Group 10879" transform="translate(0 0)">
        <path id="Path_18798" data-name="Path 18798" d="M14.487,49.743H5.008a.532.532,0,0,1-.532-.532v-.266a.542.542,0,0,0-.542-.542H1.084A1.084,1.084,0,0,0,0,49.487v9.122l1.391-6.768a.532.532,0,0,1,.521-.425H15.571v-.59A1.084,1.084,0,0,0,14.487,49.743Z" transform="translate(0 -48.403)" />
      </g>
    </g>
    <g id="Group_10882" data-name="Group 10882" transform="translate(0.242 52.481)">
      <g id="Group_10881" data-name="Group 10881" transform="translate(0 0)">
        <path id="Path_18799" data-name="Path 18799" d="M23.8,162.01H8.849L6.757,172.188a.538.538,0,0,0,.527.647H22.838a1.084,1.084,0,0,0,1.078-.965l.958-8.656A1.084,1.084,0,0,0,23.8,162.01Z" transform="translate(-6.746 -162.01)" />
      </g>
    </g>
  </g>
</svg>
