<svg id="format_color_text-24px" xmlns="http://www.w3.org/2000/svg" width="24" height="24" viewBox="0 0 24 24">
  <g id="Group_11049" data-name="Group 11049">
    <rect id="Rectangle_11577" data-name="Rectangle 11577" width="24" height="24" fill="none"/>
  </g>
  <g id="Group_11051" data-name="Group 11051">
    <g id="Group_11050" data-name="Group 11050">
      <path id="Path_19124" data-name="Path 19124" d="M20,20H4c-1.1,0-2,.635-2,1.411s.9,1.411,2,1.411H20c1.1,0,2-.635,2-1.411S21.1,20,20,20Z" transform="translate(0 0.589)" />
      <path id="Path_19125" data-name="Path 19125" d="M7.11,17h0a1.112,1.112,0,0,0,1.06-.75l1.01-2.83h5.65l.99,2.82a1.126,1.126,0,1,0,2.12-.76L13.69,4.17a1.806,1.806,0,0,0-3.38,0L6.06,15.48A1.125,1.125,0,0,0,7.11,17ZM11.94,5.6h.12l2.03,5.79H9.91Z" />
    </g>
  </g>
</svg>
