<svg xmlns="http://www.w3.org/2000/svg" width="29.962" height="29.962" viewBox="0 0 29.962 29.962">
  <g id="Group_11122" data-name="Group 11122" transform="translate(13948.98 2311.981)">
    <g id="support" transform="translate(-13948.98 -2311.981)">
      <path id="Path_18784" data-name="Path 18784" d="M71.69,0A11.47,11.47,0,0,0,60.234,11.456V22.031a2.644,2.644,0,1,0,5.288,0V13.219a2.647,2.647,0,0,0-2.644-2.644,2.615,2.615,0,0,0-.844.151,9.684,9.684,0,0,1,19.313-.007,2.6,2.6,0,0,0-.844-.144,2.647,2.647,0,0,0-2.644,2.644v8.812A2.647,2.647,0,0,0,80.5,24.675a2.613,2.613,0,0,0,.881-.162v1.044a.882.882,0,0,1-.881.881H74.172a2.644,2.644,0,1,0,0,1.762H80.5a2.647,2.647,0,0,0,2.644-2.644v-14.1A11.47,11.47,0,0,0,71.69,0Zm0,0" transform="translate(-56.709)" />
      <path id="Path_18785" data-name="Path 18785" d="M481.883,213.6v10.25a2.639,2.639,0,0,0,1.763-2.481v-5.287a2.64,2.64,0,0,0-1.763-2.481Zm0,0" transform="translate(-453.683 -201.098)" />
      <path id="Path_18786" data-name="Path 18786" d="M0,216.079v5.287a2.639,2.639,0,0,0,1.762,2.481V213.6A2.64,2.64,0,0,0,0,216.079Zm0,0" transform="translate(0 -201.098)" />
    </g>
  </g>
</svg>
